<?xml version="1.0" encoding="iso-8859-1"?>
<!-- Generator: Adobe Illustrator 21.0.0, SVG Export Plug-In . SVG Version: 6.00 Build 0)  -->
<svg version="1.1" id="Capa_1" xmlns="http://www.w3.org/2000/svg" xmlns:xlink="http://www.w3.org/1999/xlink" x="0px" y="0px"
	 viewBox="0 0 512 512" style="enable-background:new 0 0 512 512;" xml:space="preserve">
<g id="XMLID_184_">
	<g id="XMLID_185_">
		<g id="XMLID_186_">
			<g id="XMLID_187_">
				<path style="fill:#93A3AF;" d="M408,161h-13V82h13c5.523,0,10,4.477,10,10v59C418,156.523,413.523,161,408,161z"/>
				<path style="fill:#93A3AF;" d="M104,252h13v-39h-13c-5.523,0-10,4.477-10,10v19C94,247.523,98.477,252,104,252z"/>
				<path style="fill:#93A3AF;" d="M104,181h13V82h-13c-5.523,0-10,4.477-10,10v79C94,176.523,98.477,181,104,181z"/>
				<path style="fill:#93A3AF;" d="M104,314h13v-39h-13c-5.523,0-10,4.477-10,10v19C94,309.523,98.477,314,104,314z"/>
				<path style="fill:#FAAA3C;" d="M114.418,484.5v-457c0-11.046,8.954-20,20-20h243.163c11.046,0,20,8.954,20,20v457
					c0,11.046-8.954,20-20,20H134.418C123.373,504.5,114.418,495.546,114.418,484.5z"/>
				<path id="XMLID_188_" style="fill:#E79732;" d="M397.58,27.5v457c0,11.05-8.95,20-20,20H358c11.05,0,20-8.95,20-20v-457
					c0-11.05-8.95-20-20-20h19.58C388.63,7.5,397.58,16.45,397.58,27.5z"/>
				<rect x="114.418" y="58" style="fill:#EBEEF2;" width="283.163" height="396"/>
				<rect x="192.864" y="369.728" style="fill:#74E2CD;" width="126.273" height="84.273"/>
				<rect x="256" y="369.728" style="fill:#4FCEB7;" width="63.136" height="84.273"/>
				<rect x="378" y="58" style="fill:#D3D8DF;" width="19.582" height="396"/>
			</g>
		</g>
		<path style="fill:#74E2CD;" d="M142.735,162.304L142.735,162.304c-15.639,0-28.316-12.678-28.316-28.316V58h56.633v75.987
			C171.051,149.626,158.373,162.304,142.735,162.304z"/>
		<path style="fill:#EB5777;" d="M199.367,162.304L199.367,162.304c-15.639,0-28.316-12.678-28.316-28.316V58h56.633v75.987
			C227.684,149.626,215.006,162.304,199.367,162.304z"/>
		<path style="fill:#74E2CD;" d="M256,162.304L256,162.304c-15.639,0-28.316-12.678-28.316-28.316V58h56.633v75.987
			C284.316,149.626,271.639,162.304,256,162.304z"/>
		<path style="fill:#EB5777;" d="M312.633,162.304L312.633,162.304c-15.639,0-28.316-12.678-28.316-28.316V58h56.633v75.987
			C340.949,149.626,328.271,162.304,312.633,162.304z"/>
		<path style="fill:#74E2CD;" d="M369.265,162.304L369.265,162.304c-15.639,0-28.316-12.678-28.316-28.316V58h56.633v75.987
			C397.582,149.626,384.904,162.304,369.265,162.304z"/>
	</g>
	<g id="XMLID_189_">
		<path id="XMLID_190_" d="M408,74.5h-2.918v-47c0-15.164-12.336-27.5-27.5-27.5H134.418c-15.164,0-27.5,12.336-27.5,27.5v47H104
			c-9.649,0-17.5,7.851-17.5,17.5v79c0,9.649,7.851,17.5,17.5,17.5h2.918v17H104c-9.649,0-17.5,7.851-17.5,17.5v19
			c0,9.649,7.851,17.5,17.5,17.5h2.918v8H104c-9.649,0-17.5,7.851-17.5,17.5v19c0,9.649,7.851,17.5,17.5,17.5h2.918v163
			c0,15.164,12.336,27.5,27.5,27.5H240.67c4.142,0,7.5-3.357,7.5-7.5s-3.358-7.5-7.5-7.5H134.418c-6.893,0-12.5-5.607-12.5-12.5v-23
			h268.163v23c0,6.893-5.607,12.5-12.5,12.5h-36.251c-4.142,0-7.5,3.357-7.5,7.5s3.358,7.5,7.5,7.5h36.251
			c15.164,0,27.5-12.336,27.5-27.5V234.855c0-4.143-3.358-7.5-7.5-7.5s-7.5,3.357-7.5,7.5V446.5h-63.445v-76.772
			c0-4.143-3.358-7.5-7.5-7.5H192.864c-4.142,0-7.5,3.357-7.5,7.5V446.5h-63.445V163.105c5.872,4.21,13.057,6.698,20.816,6.698
			c11.508,0,21.759-5.462,28.316-13.923c6.557,8.461,16.808,13.923,28.316,13.923c11.508,0,21.759-5.462,28.316-13.923
			c6.557,8.461,16.808,13.923,28.316,13.923s21.759-5.462,28.316-13.923c6.557,8.461,16.808,13.923,28.316,13.923
			c11.508,0,21.759-5.462,28.316-13.923c6.557,8.461,16.808,13.923,28.316,13.923c7.76,0,14.945-2.489,20.816-6.698v39.09
			c0,4.143,3.358,7.5,7.5,7.5s7.5-3.357,7.5-7.5V168.5H408c9.649,0,17.5-7.851,17.5-17.5V92C425.5,82.351,417.649,74.5,408,74.5z
			 M311.636,446.5H263.5v-69.272h48.136V446.5z M200.364,377.228H248.5V446.5h-48.136V377.228z M134.418,15h243.163
			c6.893,0,12.5,5.607,12.5,12.5v23H121.918v-23C121.918,20.607,127.526,15,134.418,15z M104,173.5c-1.378,0-2.5-1.121-2.5-2.5V92
			c0-1.379,1.122-2.5,2.5-2.5h2.918v44.487V173.5H104z M104,244.5c-1.378,0-2.5-1.121-2.5-2.5v-19c0-1.379,1.122-2.5,2.5-2.5h2.918
			v24H104z M104,306.5c-1.378,0-2.5-1.121-2.5-2.5v-19c0-1.379,1.122-2.5,2.5-2.5h2.918v24H104z M142.735,154.804
			c-11.478,0-20.816-9.338-20.816-20.816V65.5h41.633v68.487C163.551,145.466,154.213,154.804,142.735,154.804z M199.367,154.804
			c-11.478,0-20.816-9.338-20.816-20.816V65.5h41.632v68.487C220.184,145.466,210.845,154.804,199.367,154.804z M256,154.804
			c-11.478,0-20.816-9.338-20.816-20.816V65.5h41.633v68.487C276.816,145.466,267.478,154.804,256,154.804z M312.633,154.804
			c-11.478,0-20.816-9.338-20.816-20.816V65.5h41.632v68.487C333.449,145.466,324.111,154.804,312.633,154.804z M369.265,154.804
			c-11.478,0-20.816-9.338-20.816-20.816V65.5h41.633v68.487C390.082,145.466,380.743,154.804,369.265,154.804z M410.5,151
			c0,1.379-1.122,2.5-2.5,2.5h-2.918v-19.513V89.5H408c1.378,0,2.5,1.121,2.5,2.5V151z"/>
		<path id="XMLID_208_" d="M308.67,497h-35.339c-4.142,0-7.5,3.357-7.5,7.5s3.358,7.5,7.5,7.5h35.339c4.142,0,7.5-3.357,7.5-7.5
			S312.812,497,308.67,497z"/>
		<path id="XMLID_209_" d="M236.418,41.834h39.163c4.142,0,7.5-3.357,7.5-7.5s-3.358-7.5-7.5-7.5h-39.163
			c-4.142,0-7.5,3.357-7.5,7.5S232.276,41.834,236.418,41.834z"/>
		<path id="XMLID_210_" d="M215.855,283.726h84.097c2.9,0,5.54-1.672,6.78-4.293l27.048-57.186c1.099-2.323,0.932-5.048-0.443-7.22
			c-1.375-2.171-3.766-3.487-6.336-3.487H216.167v-11.252c0-6.893-5.607-12.5-12.5-12.5H185c-4.142,0-7.5,3.357-7.5,7.5
			s3.358,7.5,7.5,7.5h16.167v77.4c0,1.723-0.671,3.342-1.889,4.56L188.9,295.126c-3.588,3.587-4.652,8.935-2.71,13.622
			c1.933,4.668,6.437,7.689,11.485,7.714c-0.81,2.311-1.255,4.792-1.255,7.376c0,12.337,10.037,22.373,22.374,22.373
			c12.336,0,22.373-10.036,22.373-22.373c0-2.583-0.445-5.063-1.254-7.374h29.007c-0.579,1.668-0.988,3.407-1.164,5.209
			c-1.194,12.278,7.825,23.239,20.104,24.434c0.732,0.071,1.458,0.105,2.18,0.105c11.37,0,21.13-8.664,22.253-20.21
			c0.319-3.282-0.102-6.516-1.16-9.538h8.429c4.142,0,7.5-3.357,7.5-7.5s-3.358-7.5-7.5-7.5H203.774l6.11-6.109
			C213.088,292.152,215.131,288.108,215.855,283.726z M216.167,255.133h11.709v13.593h-11.709V255.133z M288.721,226.54
			l-4.196,13.593h-13.364l0.968-13.593H288.721z M269.124,268.726l0.968-13.593h9.802l-4.196,13.593H269.124z M256.123,240.133
			h-13.247V226.54h14.216L256.123,240.133z M255.055,255.133l-0.968,13.593h-11.211v-13.593H255.055z M295.203,268.726h-3.805
			l4.196-13.593h6.039L295.203,268.726z M308.727,240.133h-8.503l4.196-13.593h10.737L308.727,240.133z M227.876,226.54v13.593
			h-11.709V226.54H227.876z M226.167,323.839c0,4.065-3.308,7.373-7.373,7.373c-4.066,0-7.374-3.308-7.374-7.373
			c0-4.066,3.308-7.374,7.374-7.374C222.859,316.465,226.167,319.772,226.167,323.839z M290.738,316.5
			c1.96,0.19,3.729,1.133,4.98,2.653c1.251,1.521,1.835,3.438,1.645,5.398c-0.394,4.047-4.006,7.016-8.052,6.626
			c-1.96-0.19-3.729-1.133-4.98-2.654c-1.251-1.521-1.835-3.438-1.645-5.398c0.19-1.96,1.133-3.729,2.654-4.98
			c1.332-1.096,2.968-1.68,4.671-1.68C290.252,316.465,290.495,316.477,290.738,316.5z"/>
	</g>
</g>
<g>
</g>
<g>
</g>
<g>
</g>
<g>
</g>
<g>
</g>
<g>
</g>
<g>
</g>
<g>
</g>
<g>
</g>
<g>
</g>
<g>
</g>
<g>
</g>
<g>
</g>
<g>
</g>
<g>
</g>
</svg>
